# ProBuilder 4.5.2
# https://unity3d.com/unity/features/worldbuilding/probuilder
# 8/13/2021 3:53:48 PM

mtllib ./Meteor.mtl
o Meteor

g Body
v 2.625 4.398862 0
v 2.653809 3.887988 0.3942983
v 2.230702 4.001812 0.6379881
v 2.086403 4.440292 0
v 2.480702 4.072074 -0.6379881
v 2.86869 3.989995 -0.3942983
v 1.413267 3.887988 0.3942983
v 2.230702 3.49369 0.6379881
v 2.625 3.200996 -0.07917517
v 2.230702 3.762946 -0.6379881
v 1.823498 3.887988 -0.3942983
v 1.836403 3.200996 -0.07917517

vt 0 0.8506508
vt 0.1624599 0.4253254
vt -0.2628655 0.6881909
vt 0 0
vt 0.2628655 0.4253254
vt 0.5257311 0
vt 0.2628655 -0.4253254
vt 0.2628655 0.6881909
vt -0.1624599 0.4253254
vt -0.2628655 0.4253254
vt -0.5257311 0.8506508
vt -0.6881909 0.4253254
vt -0.2628655 0.1624599
vt 0.2628655 0.1624599
vt 0.5257311 0.8506508
vt 0.6881909 0.4253254
vt -0.5257311 0
vt -0.2628655 -0.4253254

vn 0.7869546 0.8077472 0.9890635
vn 0.0956672 1.243683 0.8331274
vn 0.1017315 1.322519 -0.7004247
vn 0.6925338 1.114174 -0.7273331
vn 1.378305 0.40836 0.4283904
vn -0.4208109 1.140354 0.8789264
vn 0.7486378 0 1.299824
vn 1.427204 -0.3010356 0.3499531
vn 0.6622319 -0.5355643 -1.234755
vn -0.6261264 0.9767789 -0.9507201
vn -0.7355574 -1.018155 0.8199483
vn 0 -1.388789 0.5668025
vn 0 -1.057687 -1.063625
vn -0.8368784 -0.531966 -1.125454
vn -1.29732 -0.3339328 -0.6748707
vn -0.4285359 0 1.437483
vn 1.070045 -0.6265809 0.8440381
vn 0.6805068 -0.6717637 -1.155701
vn -0.6121031 0.495024 -1.276825
vn -1.063671 0.901351 -0.553326

usemtl Green_Boulder
f 3/3/1 2/2/1 1/1/1
f 4/6/2 3/5/2 1/4/2
f 5/7/3 4/6/3 1/4/3
f 6/9/4 5/8/4 1/1/4
f 2/10/5 6/5/5 1/1/5
f 7/12/6 3/3/6 4/11/6
f 8/13/7 2/2/7 3/3/7
f 9/4/8 6/5/8 2/10/8
f 10/14/9 5/8/9 6/9/9
f 11/16/10 4/15/10 5/8/10
f 8/13/11 7/12/11 12/17/11
f 9/4/12 8/10/12 12/17/12
f 10/18/13 9/4/13 12/17/13
f 11/16/14 10/14/14 12/6/14
f 7/5/15 11/10/15 12/4/15
f 3/3/16 7/12/16 8/13/16
f 2/2/17 8/13/17 9/4/17
f 6/9/18 9/4/18 10/14/18
f 5/8/19 10/14/19 11/16/19
f 4/1/20 11/10/20 7/5/20

g Gun
v 2.0625 2.620804 0.2645179
v 2.0625 2.620804 -0.0855
v 2.0625 3.370804 0.2645179
v 2.0625 3.370804 -0.0855
v 2.0695 2.620804 -0.07849964
v 2.0695 2.620804 0.2575175
v 2.0695 3.370804 -0.07849964
v 2.0695 3.370804 0.2575175
v 2.412518 2.620804 0.2645178
v 2.412518 3.370804 0.2645178
v 2.405518 2.620804 0.2575175
v 2.405518 3.370804 0.2575175
v 2.412518 2.620804 -0.08550003
v 2.412518 3.370804 -0.08550003
v 2.405518 2.620804 -0.07849967
v 2.405518 3.370804 -0.07849967

vt 0.3535534 0
vt 0 0
vt 0.3535534 0.75
vt 0 0.75
vt -0.007071071 0
vt -0.3464823 0
vt -0.007071071 0.75
vt -0.3464823 0.75
vt -0.3535534 0
vt -0.3535534 0.75
vt 0.3464823 0
vt 0.007071101 0
vt 0.3464823 0.75
vt 0.007071101 0.75
vt 0.25 0.25
vt 0.01000001 0
vt 0.25 0.24
vt -0.25 0.25
vt -0.25 0.24
vt -0.01000001 0
vt 0.5 -2.185569E-08
vt 0.49 -2.098147E-08
vt -0.5 -2.185569E-08
vt -0.49 -2.098147E-08
vt 0.25 -0.25
vt 0.25 -0.24
vt -0.25 -0.25
vt -0.25 -0.24

vn -0.99 0 8.42937E-08
vn 0.99 0 -8.42937E-08
vn 1.677445E-07 0 0.99
vn -8.42937E-08 0 -0.99
vn 0 -1 0
vn 0 1 0

usemtl Green_Boulder
f 15/21/21 16/22/21 14/20/21 13/19/21
f 19/25/22 20/26/22 18/24/22 17/23/22
f 22/21/23 15/22/23 13/20/23 21/19/23
f 20/25/24 24/26/24 23/24/24 18/23/24
f 26/22/22 22/28/22 21/27/22 25/20/22
f 24/31/21 28/32/21 27/30/21 23/29/21
f 16/22/24 26/28/24 25/27/24 14/20/24
f 28/31/23 19/32/23 17/30/23 27/29/23
f 17/34/25 18/35/25 13/33/25 14/20/25
f 20/37/26 19/38/26 16/20/26 15/36/26
f 18/35/25 23/40/25 21/39/25 13/33/25
f 24/42/26 20/37/26 15/36/26 22/41/26
f 23/40/25 27/44/25 25/43/25 21/39/25
f 28/46/26 24/42/26 22/41/26 26/45/26
f 27/44/25 17/34/25 14/20/25 25/43/25
f 19/38/26 28/46/26 26/45/26 16/20/26

